<?xml version="1.0" encoding="UTF-8"?>
<svg xmlns="http://www.w3.org/2000/svg" xmlns:xlink="http://www.w3.org/1999/xlink" width="624px" height="288px" viewBox="0 0 624 288" version="1.1">
<g id="surface1">
<path style=" stroke:none;fill-rule:nonzero;fill:rgb(100%,100%,100%);fill-opacity:0.0509804;" d="M 548.691406 40.59375 L 75.308594 40.59375 C 59.863281 40.59375 47.339844 58.808594 47.339844 81.273438 L 47.339844 397.320312 C 47.339844 419.785156 59.863281 438 75.308594 438 L 548.691406 438 C 564.136719 438 576.664062 419.785156 576.664062 397.320312 L 576.664062 81.273438 C 576.664062 58.808594 564.136719 40.59375 548.691406 40.59375 Z M 548.691406 40.59375 "/>
<path style="fill:none;stroke-width:1;stroke-linecap:butt;stroke-linejoin:miter;stroke:rgb(100%,100%,100%);stroke-opacity:0.101961;stroke-miterlimit:4;" d="M 182.53776 14.24349 L 24.744792 14.24349 C 19.792969 14.24349 15.779948 20.47526 15.779948 28.16276 L 15.779948 140.627604 C 15.779948 148.315104 19.792969 154.545573 24.744792 154.545573 L 182.53776 154.545573 C 187.489583 154.545573 191.502604 148.315104 191.502604 140.627604 L 191.502604 28.16276 C 191.502604 20.47526 187.489583 14.24349 182.53776 14.24349 Z M 182.53776 14.24349 " transform="matrix(3,0,0,3,0,0)"/>
<path style=" stroke:none;fill-rule:nonzero;fill:rgb(100%,100%,100%);fill-opacity:0.2;" d="M 117.269531 87.601562 C 117.269531 75.800781 107.636719 66.234375 95.75 66.234375 C 83.867188 66.234375 74.234375 75.800781 74.234375 87.601562 C 74.234375 99.398438 83.867188 108.964844 95.75 108.964844 C 107.636719 108.964844 117.269531 99.398438 117.269531 87.601562 Z M 117.269531 87.601562 "/>
<path style="fill:none;stroke-width:1;stroke-linecap:butt;stroke-linejoin:miter;stroke:rgb(100%,100%,100%);stroke-opacity:0.101961;stroke-miterlimit:4;" d="M 38.730469 29.200521 C 38.730469 25.463542 35.68099 22.433594 31.916667 22.433594 C 28.153646 22.433594 25.102865 25.463542 25.102865 29.200521 C 25.102865 32.936198 28.153646 35.966146 31.916667 35.966146 C 35.68099 35.966146 38.730469 32.936198 38.730469 29.200521 Z M 38.730469 29.200521 " transform="matrix(3,0,0,3,0,0)"/>
<path style=" stroke:none;fill-rule:nonzero;fill:rgb(100%,100%,100%);fill-opacity:0.2;" d="M 493.820312 134.605469 L 82.839844 134.605469 C 78.089844 134.605469 74.234375 138.433594 74.234375 143.152344 C 74.234375 147.871094 78.089844 151.699219 82.839844 151.699219 L 493.820312 151.699219 C 498.574219 151.699219 502.429688 147.871094 502.429688 143.152344 C 502.429688 138.433594 498.574219 134.605469 493.820312 134.605469 Z M 493.820312 134.605469 "/>
<path style=" stroke:none;fill-rule:nonzero;fill:rgb(100%,100%,100%);fill-opacity:0.2;" d="M 231.308594 79.054688 L 145.242188 79.054688 C 140.488281 79.054688 136.632812 82.878906 136.632812 87.601562 C 136.632812 92.320312 140.488281 96.148438 145.242188 96.148438 L 231.308594 96.148438 C 236.0625 96.148438 239.917969 92.320312 239.917969 87.601562 C 239.917969 82.878906 236.0625 79.054688 231.308594 79.054688 Z M 231.308594 79.054688 "/>
<path style=" stroke:none;fill-rule:nonzero;fill:rgb(100%,100%,100%);fill-opacity:0.2;" d="M 295.863281 79.054688 L 261.433594 79.054688 C 256.679688 79.054688 252.828125 82.878906 252.828125 87.601562 C 252.828125 92.320312 256.679688 96.148438 261.433594 96.148438 L 295.863281 96.148438 C 300.613281 96.148438 304.46875 92.320312 304.46875 87.601562 C 304.46875 82.878906 300.613281 79.054688 295.863281 79.054688 Z M 295.863281 79.054688 "/>
<path style=" stroke:none;fill-rule:nonzero;fill:rgb(100%,100%,100%);fill-opacity:0.2;" d="M 252.828125 168.789062 L 82.839844 168.789062 C 78.089844 168.789062 74.234375 172.617188 74.234375 177.335938 C 74.234375 182.054688 78.089844 185.882812 82.839844 185.882812 L 252.828125 185.882812 C 257.582031 185.882812 261.433594 182.054688 261.433594 177.335938 C 261.433594 172.617188 257.582031 168.789062 252.828125 168.789062 Z M 252.828125 168.789062 "/>
</g>
</svg>
